<?xml version="1.0" standalone="no"?>
<!DOCTYPE svg PUBLIC "-//W3C//DTD SVG 1.1//EN" "http://www.w3.org/Graphics/SVG/1.1/DTD/svg11.dtd" >
<!--
2013-9-30: Created.
-->
<svg>
<metadata>
Created by iconfont
</metadata>
<defs>

<font id="iconfont" horiz-adv-x="1024" >
  <font-face
    font-family="iconfont"
    font-weight="500"
    font-stretch="normal"
    units-per-em="1024"
    ascent="896"
    descent="-128"
  />
    <missing-glyph />
    
    <glyph glyph-name="tubiao209" unicode="&#58943;" d="M872.557745 735.939046l-720.137162 0c-66.384034 0-120.021155-53.626887-120.021155-119.878908l0-464.274803c0-66.249975 53.637121-119.881978 120.021155-119.881978l720.137162 0c66.136382 0 120.022178 53.632004 120.022178 119.881978L992.579923 616.060138C992.580946 682.312159 938.694127 735.939046 872.557745 735.939046zM928.565979 151.785335c0-30.808111-25.129512-55.875199-56.007211-55.875199l-720.137162 0c-30.881792 0-56.007211 25.066064-56.007211 55.875199L96.414395 616.060138c0 30.750803 25.126442 55.878269 56.007211 55.878269l720.137162 0c30.878722 0 56.007211-25.127466 56.007211-55.878269L928.565979 151.785335zM833.235318 519.802317l-320.745131-206.758702-320.872027 206.758702c-14.881633 9.50083-34.633413 5.255953-44.258069-9.562232-9.504924-14.874469-5.256976-34.685604 9.624656-44.249883l338.190268-217.887691c5.248789-3.433357 11.315239-5.061515 17.315171-5.061515 6.003002 0 12.063312 1.628158 17.316195 5.061515l338.058255 217.887691c14.881633 9.564279 19.196098 29.375413 9.571442 44.249883C867.863614 525.116601 847.926606 529.303147 833.235318 519.802317z"  horiz-adv-x="1025" />

    
    <glyph glyph-name="mima" unicode="&#58905;" d="M524.195 335.229c-47.157 0-85.375-38.204-85.375-85.346 0-33.965 20.021-63.06 48.787-76.784l0-93.869c0-20.181 16.4-36.577 36.588-36.577 20.189 0 36.59 16.396 36.59 36.577l0 93.872c28.767 13.725 48.787 42.817 48.787 76.783C609.572 297.025 571.353 335.229 524.195 335.229zM877.857 505.885 146.18 505.885c-40.415 0-73.18-32.715-73.18-73.118l0-487.614c0-40.4 32.765-73.153 73.18-73.153l731.678 0c40.377 0 73.143 32.753 73.143 73.153L951.001 432.767C951.001 473.169 918.235 505.885 877.857 505.885zM877.857-6.078c0-40.4-8.37-48.77-48.786-48.77L194.927-54.848c-40.414 0-48.747 8.368-48.747 48.77L146.18 383.998c0 40.401 8.333 48.769 48.747 48.769l634.145 0c40.415 0 48.786-8.367 48.786-48.769L877.858-6.078zM166.286 542.687c20.313 0 36.833 16.184 37.39 36.356l0.077-0.004C236.819 718.757 362.118 822.845 512 822.845c117.157 0 219.136-63.737 273.948-158.252 5.702-12.906 18.61-21.917 33.632-21.917 20.302 0 36.76 16.452 36.76 36.747 0 7.918-2.514 15.245-6.774 21.244C782.132 817.289 656.454 896 512 896 323.242 896 166.046 766.513 129.854 588.605c-0.171-0.733-0.32-1.473-0.447-2.223-0.176-0.89-0.367-1.773-0.537-2.665l0.177-0.011c-0.114-1.189-0.177-2.394-0.177-3.614C128.868 559.433 145.621 542.687 166.286 542.687z"  horiz-adv-x="1024" />

    
    <glyph glyph-name="zhuxiao" unicode="&#58897;" d="M528.577343 263.377423c0 10.942785-8.893762 19.841662-19.832456 19.841662L324.065822 283.219085c-10.93767 0-19.831433-8.898877-19.831433-19.841662 0-10.973475 8.893762-19.841662 19.831433-19.841662l184.679065 0C519.682557 243.536783 528.577343 252.404971 528.577343 263.377423zM585.966354 350.919704c0 10.941762-8.893762 19.841662-19.832456 19.841662L324.065822 370.761367c-10.93767 0-19.831433-8.898877-19.831433-19.841662s8.893762-19.841662 19.831433-19.841662l242.069099 0C577.072591 331.079065 585.966354 339.977942 585.966354 350.919704zM324.065822 195.645091c-10.93767 0-19.831433-8.867165-19.831433-19.841662 0-10.941762 8.893762-19.841662 19.831433-19.841662l107.142521 0c10.969383 0 21.088671 8.898877 21.088671 19.841662 0 10.974498-8.863073 19.841662-19.831433 19.841662L324.065822 195.645091zM575.658837 34.270466 284.590162 34.270466c-19.360863 0-35.074813 15.753846-35.074813 35.123916l0 6.195149 0 53.330861L249.515349 402.8675c0 19.402805 15.71395 35.123916 35.074813 35.123916l333.340132 0c19.360863 0 35.074813-15.721111 35.074813-35.123916l0-51.349355c16.563021 6.698454 34.227788 11.288551 52.644444 13.365195l0 55.561974c0 38.770829-31.429946 70.184408-70.181339 70.184408l-68.734849 0L566.733363 515.062505C566.733363 553.86607 535.303417 585.278625 496.551001 585.278625L128.135033 585.278625C89.382617 585.278625 57.953694 553.86607 57.953694 515.062505l0-368.5643c0-38.804587 31.428923-70.248855 70.181339-70.248855l68.735872 0 0-24.401071c0-38.804587 31.428923-70.217143 70.181339-70.217143L645.776751-18.368863C618.685251-6.104392 594.767025 11.975704 575.658837 34.270466zM145.672951 128.920392c-19.360863 0-35.075836 15.722134-35.075836 35.093227L110.597115 497.516404c0 19.371093 15.714973 35.123916 35.075836 35.123916l333.339109 0c19.360863 0 35.075836-15.722134 35.075836-35.123916l0-6.885658L267.053267 490.630745c-38.752416 0-70.181339-31.413578-70.181339-70.184408l0-291.525946L145.672951 128.920392zM751.066661 349.568352c-101.234829 0-183.422849-82.10209-183.484228-183.292931-0.064448-101.219485 82.344535-183.479113 183.734857-183.448424 100.951465 0.030689 183.170174 82.197227 183.327712 183.166082C934.769806 267.245299 852.456983 349.537662 751.066661 349.568352zM869.679824 144.767329c-38.468028 0.158561-198.665207 0.158561-237.16597 0-11.785718-0.062402-21.309634 9.465606-21.24621 21.257463 0.062402 11.791856 9.648719 21.413978 21.46615 21.47638 38.374937 0.156515 198.351153 0.156515 236.755756 0 11.785718-0.063425 21.404771-9.684523 21.46615-21.47638C890.988436 154.232935 881.497255 144.704927 869.679824 144.767329z"  horiz-adv-x="1024" />

    
    <glyph glyph-name="huiyuandengji0101" unicode="&#58902;" d="M793.270035 321.816752c20.511149 41.156352 23.741727 85.658915 23.741727 134.610814 0 170.908508-131.935891 311.067688-305.300334 311.067688-173.368536 0-305.309544-140.137691-305.309544-311.067688 0-48.957015 3.230578-93.480045 23.741727-134.63742l-115.909893-199.467961c0 0 79.3093-29.187763 161.2925-46.086641 54.670134-60.863183 99.06525-126.263705 99.06525-126.263705l108.314914 206.912513c6.638187-0.413416 16.294105 0 23.037692 0 6.745634 0 16.427134-0.413416 23.043832 0l115.210975-195.859783c0 0 49.040926 54.323233 103.688547 115.211998 81.983199 16.893762 161.2925 46.086641 161.2925 46.086641L793.270035 321.816752 793.270035 321.816752 793.270035 321.816752zM367.694383 30.149926c0 0-38.424124 49.361221-75.314313 85.252663-52.323693 14.878872-120.541377 29.957289-120.541377 29.957289l80.644715 138.249691c42.717917-55.749722 112.862487-108.394732 183.780677-125.672234L367.694383 30.149926 367.694383 30.149926zM505.944074 191.446519c-67.488067 0-258.462586 40.35101-264.980024 264.981047-4.098341 141.254118 124.028804 276.504498 264.980024 276.504498 140.947126 0 275.69097-135.198192 276.504498-276.504498C783.681656 242.775558 573.436234 191.446519 505.944074 191.446519L505.944074 191.446519zM644.198881 30.149926l-69.12945 126.734426c70.923306 17.276479 153.145959 70.976518 195.859783 126.731356l80.644715-138.254807c-0.022513 0.031722-68.217684-15.056927-120.541377-29.957289L644.198881 30.149926 644.198881 30.149926zM511.711428 639.683287c-98.775654 0-178.842201-80.110549-178.842201-178.935322s80.065524-178.935322 178.842201-178.935322c98.766444 0 178.832991 80.110549 178.832991 178.935322S610.477872 639.683287 511.711428 639.683287L511.711428 639.683287 511.711428 639.683287zM517.468548 318.177875c-44.373627 0-142.378731 17.561981-149.775188 149.769049-3.941775 70.463842 79.234599 138.254807 149.775188 138.254807 70.53445 0 136.465045-79.221296 138.249691-149.773142C658.05854 363.827565 561.842175 318.177875 517.468548 318.177875L517.468548 318.177875zM517.468548 318.177875"  horiz-adv-x="1024" />

    
    <glyph glyph-name="shenfenzheng" unicode="&#58957;" d="M857.6-32 166.4-32c-89.6 0-166.4 70.4-166.4 166.4L0 633.6c0 89.6 70.4 166.4 166.4 166.4l697.6 0c89.6 0 166.4-70.4 166.4-166.4l0-505.6C1024 38.4 953.6-32 857.6-32zM166.4 736C108.8 736 64 691.2 64 633.6l0-505.6c0-57.6 44.8-102.4 102.4-102.4l697.6 0c57.6 0 102.4 44.8 102.4 102.4L966.4 633.6c0 57.6-44.8 102.4-102.4 102.4L166.4 736zM364.8 320c-76.8 0-140.8 64-140.8 140.8 0 76.8 64 140.8 140.8 140.8s140.8-64 140.8-140.8C505.6 377.6 441.6 320 364.8 320zM364.8 537.6C320 537.6 281.6 499.2 281.6 460.8S320 384 364.8 384c44.8 0 76.8 32 76.8 76.8S403.2 537.6 364.8 537.6zM576 153.6c-12.8 0-25.6 12.8-32 25.6C518.4 300.8 422.4 320 364.8 320S211.2 300.8 192 179.2c-6.4-19.2-19.2-25.6-38.4-25.6C134.4 160 121.6 172.8 128 192c25.6 115.2 115.2 192 236.8 192s217.6-70.4 236.8-192c6.4-19.2-6.4-32-25.6-38.4C576 153.6 576 153.6 576 153.6zM864 448l-192 0C652.8 448 640 460.8 640 480S652.8 512 672 512l192 0C883.2 512 896 499.2 896 480S883.2 448 864 448zM736 294.4l-64 0c-19.2 0-32 12.8-32 32s12.8 32 32 32l64 0c19.2 0 32-12.8 32-32S755.2 294.4 736 294.4z"  horiz-adv-x="1031" />

    
    <glyph glyph-name="chongzhi" unicode="&#58900;" d="M693.095316 614.239143l-131.632817-223.935003 103.718481 0 0-49.478312-120.846571 0 0-68.193688 120.846571 0 0-50.115659-120.846571 0 0-99.276514-62.164435 0L482.169975 222.516481 356.88022 222.516481l0 50.115659 125.289755 0 0 68.193688L356.88022 340.825828l0 49.478312 106.893053 0-130.364204 223.935003 70.099647 0c60.895822-111.230417 97.898433-181.748475 111.012698-211.562689l1.268612 0c4.441967 12.262847 16.596562 37.002611 36.474732 74.219292l74.536749 137.343396L693.095316 614.239143 693.095316 614.239143zM693.095316 614.239143M784.470674 274.551478c-15.061578 0-27.247797-12.187435-27.247797-27.247797s12.187435-27.247797 27.247797-27.247797l71.98128 0c-61.204765-128.843816-192.338895-217.986027-344.464118-217.986027-210.6687 0-381.478892 170.782216-381.478892 381.475243 0 210.696675 170.810191 381.465512 381.478892 381.465512 192.121175 0 350.635679-142.189179 377.137878-326.968701l55.08064 0C917.333181 653.046759 734.255278 819.506206 511.987837 819.506206 271.197197 819.506206 76.012135 624.311414 76.012135 383.543883c0-240.762665 195.185062-435.972053 435.975702-435.972053 164.236031 0 307.128238 90.894915 381.475243 225.064956l0-61.57574c0-15.061578 12.187435-27.247797 27.276989-27.247797 15.004412 0 27.247797 12.187435 27.247797 27.247797L947.987865 247.302465c0 3.297419 0 27.247797-27.247797 27.247797L784.470674 274.550262 784.470674 274.551478zM784.470674 274.551478"  horiz-adv-x="1024" />

    
    <glyph glyph-name="gonggao" unicode="&#59072;" d="M913.926534 589.070562c-34.841529 63.1032-84.71031 116.042923-144.194076 153.084561-6.061043 3.857864-11.45489 6.427386-18.08489 6.427386-16.757662 0-30.391171-14.431687-30.391171-32.1707 0-12.040221 6.257517-22.553669 17.10047-28.801976 104.863303-64.952314 170.005952-185.193863 170.005952-313.797869 0-128.48428-65.080228-248.671593-169.782871-313.62186-8.66638-5.050016-17.927301-15.391549-17.927301-29.275767 0-17.739013 13.658068-32.1707 30.446429-32.1707 7.073092 0 12.658298 3.054569 17.785062 6.192026 59.742662 37.002752 109.819175 89.979314 144.816247 153.200194 36.057217 65.137533 55.116295 139.717112 55.116295 215.678154C968.816678 449.600067 949.836395 524.036383 913.926534 589.070562zM803.242665 373.81094c0 44.717458-11.232832 88.62241-32.481785 126.96774-20.623713 37.2156-50.127677 68.388577-85.322248 90.149183l-0.10847 0.064468c-1.02433 0.564865-10.200316 5.520737-17.015535 5.520737-16.879436 0-30.611182-14.480806-30.611182-32.279171 0-11.665691 5.8001-22.472827 15.155165-28.212552 54.896284-33.086559 89.00001-95.240131 89.00001-162.208359 0-68.366064-35.157731-131.180691-91.75475-163.933653l-0.100284-0.061398c-9.143241-5.863545-14.601556-16.182564-14.601556-27.602661 0-17.830087 13.707187-32.336476 30.531364-32.336476l0.162706-0.001023c0.001023 0 0.001023 0 0.001023 0 7.096628 0 15.121396 4.170996 15.459087 4.348028l0.11461 0.064468C756.659721 198.709947 803.242665 282.825716 803.242665 373.81094zM550.366308 820.456467c-4.938476 2.527566-10.45205 3.864004-15.941064 3.864004-8.256034 0-16.358573-2.992147-22.808472-8.42181l-0.145309-0.121773c-5.265934-4.438079-52.949956-44.529169-104.874559-85.10326-93.812619-73.362868-122.260531-86.464257-127.851876-88.575338L159.5933 642.098289c-0.782829 0-1.485841-0.053212-2.139733-0.110517l-60.977793 0c-16.788361 0-30.445406-14.419408-30.445406-32.144094l0-472.503451c0-17.70729 13.658068-32.113395 30.445406-32.113395l204.416669-0.059352c5.431709-2.260483 32.210609-15.781428 115.359354-87.7526 28.380374-24.549116 61.175291-54.086849 92.342128-83.173304 0.826831-0.771573 1.36509-1.27197 1.592264-1.479701l0-0.001023c6.668886-6.316869 15.270798-9.795087 24.221658-9.795087 5.106298 0 10.298554 1.183965 15.020088 3.428076 13.477966 6.433526 22.533202 20.562315 22.533202 35.150568 0.00307 1.576915 0.291642 157.672042 0.291642 160.783917 0 3.175319-1.301645 656.819317-1.314948 663.416572C570.936809 800.639119 563.055305 813.939029 550.366308 820.456467zM510.864642 127.520581l-0.466628-102.921068c-15.527648 13.923104-30.552853 27.123754-44.726667 39.289841-113.78244 97.821933-142.303007 106.007359-161.762197 106.007359-0.385786 0-0.703011-0.048095-0.935302-0.083911-0.060375-0.00921-0.12075-0.021489-0.13917-0.025583-0.063445 0.005117-0.12382 0.017396-0.184195 0.025583-0.231267 0.035816-0.548492 0.083911-0.934279 0.083911L148.03301 169.896714c-17.677615 0-21.494547 4.28356-21.494547 24.121374L126.538463 556.646082c0 13.921058 1.487887 20.479427 15.084557 20.479427l138.452305 0c18.941398 0 47.839565 8.090259 172.184571 104.774275 18.978237 14.756075 38.977733 30.639834 58.115606 46.155203C510.425643 668.108686 510.864642 129.897721 510.864642 127.520581z"  horiz-adv-x="1024" />

    
    <glyph glyph-name="yuqi" unicode="&#58901;" d="M704 696.32h28.16c25.6 0 43.52 20.48 43.52 43.52V826.88c0 25.6-20.48 43.52-43.52 43.52h-28.16c-25.6 0-43.52-20.48-43.52-43.52V742.4c-2.56-25.6 17.92-46.08 43.52-46.08zM332.8 696.32h28.16c25.6 0 43.52 20.48 43.52 43.52V826.88c0 25.6-20.48 43.52-43.52 43.52H332.8c-25.6 0-43.52-20.48-43.52-43.52V742.4c-2.56-25.6 17.92-46.08 43.52-46.08z m637.44-23.04v102.4c0 20.48-17.92 38.4-38.4 38.4H844.8h-46.08v-56.32c0-51.2-40.96-92.16-92.16-92.16h-5.12c-51.2 0-92.16 40.96-92.16 92.16V814.08h-171.52v-56.32c0-51.2-40.96-92.16-92.16-92.16h-5.12c-51.2 0-92.16 40.96-92.16 92.16V814.08H181.76h10.24-99.84c-20.48 0-38.4-17.92-38.4-38.4v-839.68c0-20.48 17.92-38.4 38.4-38.4H186.88h-12.8H934.4c20.48 0 38.4 17.92 38.4 38.4V665.6c-2.56 2.56-2.56 5.12-2.56 7.68z m-56.32-660.48c0-53.76-5.12-58.88-58.88-58.88H168.96c-53.76 0-58.88 5.12-58.88 58.88V578.56h801.28v-565.76z m-583.68 5.12c7.68-5.12 17.92-5.12 28.16-5.12h368.64c10.24 0 17.92 7.68 17.92 17.92 0 10.24-7.68 17.92-17.92 17.92H358.4c-10.24 0-17.92 2.56-23.04 10.24-5.12 5.12-7.68 12.8-7.68 23.04V358.4c0 10.24-7.68 17.92-17.92 17.92-10.24 0-17.92-7.68-17.92-17.92v-276.48c0-7.68 2.56-17.92 5.12-25.6 5.12-17.92 17.92-30.72 33.28-38.4zM307.2 412.16c10.24 0 20.48 7.68 20.48 17.92v58.88c0 10.24-7.68 17.92-17.92 17.92-10.24 0-17.92-7.68-17.92-17.92v-58.88c-2.56-10.24 5.12-17.92 15.36-17.92zM629.76 153.6c10.24 0 17.92 7.68 17.92 17.92v140.8c0 10.24-7.68 17.92-17.92 17.92-10.24 0-17.92-7.68-17.92-17.92v-140.8c0-10.24 7.68-17.92 17.92-17.92z m-250.88 204.8c7.68-5.12 20.48-2.56 25.6 7.68l5.12 7.68c2.56 0 5.12-2.56 7.68-2.56h294.4l5.12-5.12c5.12-10.24 15.36-12.8 25.6-7.68 7.68 5.12 12.8 15.36 7.68 25.6l-48.64 84.48c-7.68 12.8-17.92 23.04-28.16 28.16-10.24 5.12-25.6 7.68-43.52 7.68h-135.68c-17.92 0-30.72-2.56-43.52-10.24-10.24-5.12-20.48-15.36-28.16-28.16l-51.2-81.92c-2.56-5.12-2.56-10.24 0-15.36 0-2.56 2.56-7.68 7.68-10.24z m74.24 92.16c5.12 5.12 7.68 10.24 15.36 12.8 5.12 2.56 12.8 5.12 23.04 5.12h135.68c17.92 0 30.72-5.12 38.4-17.92l23.04-40.96H430.08l23.04 40.96z m104.96-376.32c10.24 0 17.92 7.68 17.92 17.92V281.6c0 17.92-5.12 30.72-15.36 40.96-10.24 12.8-23.04 17.92-40.96 17.92h-89.6c-7.68 0-15.36-2.56-23.04-5.12-20.48-10.24-35.84-30.72-35.84-53.76v-189.44c0-10.24 7.68-17.92 17.92-17.92 10.24 0 17.92 7.68 17.92 17.92v33.28H537.6v-33.28c2.56-10.24 10.24-17.92 20.48-17.92zM409.6 281.6c0 5.12 2.56 12.8 7.68 15.36 5.12 5.12 10.24 5.12 15.36 5.12h89.6c12.8 0 17.92-10.24 17.92-20.48v-30.72H409.6V281.6z m0-120.32v51.2h130.56v-51.2H409.6z m197.12-66.56c0-10.24 7.68-17.92 17.92-17.92h46.08c10.24 0 17.92 2.56 25.6 5.12 17.92 7.68 30.72 20.48 38.4 38.4 5.12 7.68 5.12 17.92 5.12 25.6v174.08c0 10.24-7.68 17.92-17.92 17.92-10.24 0-17.92-7.68-17.92-17.92v-174.08c0-7.68-2.56-17.92-10.24-23.04-5.12-5.12-12.8-10.24-23.04-10.24h-46.08c-10.24 0-17.92-7.68-17.92-17.92z"  horiz-adv-x="1024" />

    
    <glyph glyph-name="quanxianguanli" unicode="&#58886;" d="M484.352 799.402667L139.52 686.506667c-5.12-1.664-11.52-10.453333-11.52-15.488v-451.84c0-31.445333 25.088-72.405333 53.077333-86.784l312.533334-160.341334c8.533333-4.352 28.202667-4.394667 36.778666 0l312.533334 160.341334c27.861333 14.293333 53.077333 55.509333 53.077333 86.784V671.018667c0 4.949333-6.485333 13.866667-11.52 15.488l-344.832 112.896c-13.952 4.565333-41.301333 4.565333-55.296 0z m81.834667 81.066666l344.832-112.853333C951.04 754.517333 981.333333 712.96 981.333333 671.018667v-451.84c0-63.274667-43.136-133.802667-99.456-162.688l-312.533333-160.341334c-33.066667-16.981333-81.749333-16.896-114.688 0l-312.533333 160.341334C85.76 85.418667 42.666667 155.690667 42.666667 219.178667V671.018667c0 42.069333 30.250667 83.498667 70.314666 96.597333L457.813333 880.512c31.232 10.197333 77.184 10.197333 108.373334 0zM512 341.333333a170.666667 170.666667 0 1 0 0 341.333334 170.666667 170.666667 0 0 0 0-341.333334z m0 85.333334a85.333333 85.333333 0 1 1 0 170.666666 85.333333 85.333333 0 0 1 0-170.666666zM469.333333 384l85.333334 0 0-298.666667-85.333334 0 0 298.666667ZM512 298.666667l170.666667 0 0-85.333334-170.666667 0 0 85.333334Z"  horiz-adv-x="1024" />

    
    <glyph glyph-name="jilu" unicode="&#58934;" d="M512 831.5C264.9 831.5 64.5 631.1 64.5 384S264.9-63.5 512-63.5 959.5 136.9 959.5 384 759.1 831.5 512 831.5z m0-831.1c-211.5 0-383.6 172.1-383.6 383.6S300.5 767.6 512 767.6 895.6 595.5 895.6 384 723.5 0.4 512 0.4zM512 639.7h-63.9V320.1h319.6V384H512z"  horiz-adv-x="1024" />

    
    <glyph glyph-name="baosun" unicode="&#59003;" d="M672.7 744.6H150.1c-12.4 0-22.5-10.1-22.5-22.6 0-12.5 10.1-22.6 22.5-22.6h522.6c12.4 0 22.5 10.1 22.5 22.6 0 12.5-10.1 22.6-22.5 22.6zM695.2 583c0 12.5-10.1 22.6-22.5 22.6H150.1c-12.4 0-22.5-10.1-22.5-22.6 0-12.5 10.1-22.6 22.5-22.6h522.6c12.4 0 22.5 10.1 22.5 22.6zM150.1 466.5c-12.4 0-22.5-10.1-22.5-22.6 0-12.5 10.1-22.6 22.5-22.6h348.4c12.4 0 22.5 10.1 22.5 22.6 0 12.5-10.1 22.6-22.5 22.6H150.1z m265.6-139.1H150.1c-12.4 0-22.5-10.1-22.5-22.6 0-12.5 10.1-22.6 22.5-22.6h265.7c12.4 0 22.5 10.1 22.5 22.6-0.1 12.5-10.2 22.6-22.6 22.6z m-51.4-359.9H91c-12.5 0-22.6 10.7-22.6 23.8l0.1 819.1c0 12.6 10.2 22.8 22.7 22.8l660.5 0.5c12.7 0 23-10.1 23-22.6v-303.8c0-12.4 10.2-22.4 22.8-22.4 12.6 0 22.8 10 22.8 22.4V821.2c0 37.1-30.7 67.3-68.5 67.3H81.1C43.8 888.5 13.5 858 13.5 820.6v-829.2c0-39.1 30.3-71 67.5-71h283.4c12.4 0 22.4 10.5 22.4 23.6-0.1 13-10.2 23.5-22.5 23.5z m354.6 460.6c-150.4 0-272.7-122.9-272.7-274s122.3-274 272.7-274c150.4 0 272.7 122.9 272.7 274s-122.4 274-272.7 274z m0-502.8c-125.6 0-227.7 102.7-227.7 228.8 0 126.2 102.2 228.8 227.7 228.8 125.6 0 227.7-102.7 227.7-228.8 0-126.1-102.1-228.8-227.7-228.8z m56 229.7h-22.2c0-22.8-1.5-39.5-4.6-50.1-9.4-33.6-41.5-54.5-96.1-62.6 6-9.1 10.4-16.4 13.3-22 47.3 10 79.1 29.1 95.5 57.1 31.3-18.6 58.9-37.1 82.5-55.7l16.2 19.4c-28.7 19.3-58.8 38.1-90.3 56.2 3.8 14.3 5.7 33.5 5.7 57.7z m-60.6 59.4h99.5v-8.4h21.1v88.4H693.2v-87.8h21.1v7.8z m0 60.6h99.5v-41.2h-99.5V275z m-44.1-98.6c-11.2-3.3-22.8-6.6-34.9-9.9v62H673v20.9h-37.8v55.9h-21.3v-55.9h-38.1v-20.9h38.1v-67.8c-13.1-3.3-26.6-6.6-40.7-9.8l2.9-24.4c13.5 4 26.1 7.8 37.8 11.3V61c0-10.2-4-15.4-12.1-15.4-5.6 0-14.3 0.7-26.3 2 1.7-7.3 3-15 3.8-22.9 11.3-0.4 21.5-0.5 30.6-0.3 16.9 0.4 25.4 11.3 25.4 32.8v87c13.8 4.1 26.2 7.5 36.9 10.4-1 6.1-1.7 13.3-2 21.8z m32.3-8.4h122.3v-85.5h21.1V187.4H681.4v-105.5h21.1V168z"  horiz-adv-x="1024" />

    
    <glyph glyph-name="dianhua" unicode="&#58936;" d="M760.5513481481481 335.1774142767407c-68.7954620871111 0-130.9332991241481-33.288126464-166.44063474725925-90.98754761007407-55.48021198696296 6.657625050074073-106.52200686933334 33.288126464-146.4677583834074 73.2338791917037-39.9457527277037 39.9457527277037-64.35704498251852 93.20675555555555-71.01467124622222 148.68696754251854 53.26100282785185 37.72654356859259 86.54913050548149 97.64517266014815 86.54913050548149 164.2214268017778 0 110.9604227602963-88.76833845096297 199.72876242488888-199.72876242488888 199.72876121125924s-199.72876242488888-88.76833845096297-199.72876242488888-199.72876121125924c0-168.65984390637036 84.32992134637037-346.1965208082963 233.0168888888889-486.00665414162955 139.81013333333334-130.9332991241481 312.9083931306667-210.82480457955552 463.8145698322963-210.82480457955552 8.876834209185184 0 17.75366720474074 0 28.849710573037036 2.2192079454814815s19.97287636385185 13.315251313777777 17.75366720474074 24.411293468444445c-2.2192079454814815 11.096042154666666-13.315251313777777 19.97287636385185-24.411293468444445 17.753668418370367-6.657625050074073 0-15.53445925925926-2.2192079454814815-22.19208430933333-2.219209159111111-139.81013333333334 0-301.81235097599995 73.2338791917037-432.7456513137778 197.50955326577775-139.81013333333334 130.9332991241481-219.70163757511108 297.3739338714074-219.70163757511108 454.93773562311105 0 86.54913050548149 68.7954620871111 155.3445925925926 155.3445925925926 155.3445925925926s155.3445925925926-68.7954620871111 155.3445925925926-155.3445925925926c0-51.041794882370375-26.630501413925924-99.86438060562962-68.7954620871111-128.71409117866665l-8.876834209185184-6.657625050074073c-6.657625050074073-4.438417104592592-11.096042154666666-13.315251313777777-8.876834209185184-19.97287636385185v-11.096042154666666c6.657625050074073-66.57625414162963 35.50733562311111-128.71409117866665 82.1107134008889-177.53667690192594s108.74121481481481-79.89150424177778 175.31746895644446-86.54913050548149l11.096042154666666-2.2192079454814815c8.876834209185184 0 17.75366720474074 2.2192079454814815 22.19208430933333 11.096042154666666l6.657626263703703 11.096042154666666c28.849710573037036 44.384169832296294 77.6722962962963 71.01467124622222 130.9332991241481 71.01467124622222 86.54913050548149 0 155.3445925925926-68.7954620871111 155.3445925925926-155.3445925925926 0-42.164960673185185-17.75366720474074-84.32992134637037-48.822585723259266-113.17963191940738-8.876834209185184-8.876834209185184-8.876834209185184-22.19208430933333-2.219209159111111-31.06891851851852s22.19208430933333-8.876834209185184 31.06891851851852-2.219209159111111c39.9457527277037 37.72654356859259 64.35704498251852 90.98754761007407 64.35704619614813 146.46775959703703 0 113.17963191940738-88.76833845096297 201.94797037037037-199.72876242488888 201.94797037037037z"  horiz-adv-x="1024" />

    
    <glyph glyph-name="shuji" unicode="&#58885;" d="M601.304371-128h-33.6896a126.7712 126.7712 0 0 0-125.3376 127.6928v768A126.7712 126.7712 0 0 0 567.614771 896h33.6896A126.7712 126.7712 0 0 0 727.153971 768.2048v-768A126.7712 126.7712 0 0 0 601.304371-128zM567.614771 802.7136a34.2016 34.2016 0 0 1-33.8944-34.5088v-768a34.2016 34.2016 0 0 1 33.8944-34.5088h33.6896A34.2016 34.2016 0 0 1 634.993971-0.3072v768a34.2016 34.2016 0 0 1-33.8944 34.5088zM898.673971-128h-33.6896a126.7712 126.7712 0 0 0-125.44 127.6928V650.24a126.7712 126.7712 0 0 0 125.44 127.3856h33.6896A126.7712 126.7712 0 0 0 1024.113971 650.24v-650.5472A126.6688 126.6688 0 0 0 898.673971-128z m-33.6896 812.4416a34.2016 34.2016 0 0 1-33.792-34.2016v-650.5472a34.2016 34.2016 0 0 1 33.792-34.5088h33.6896a34.2016 34.2016 0 0 1 33.792 34.5088V650.24a34.2016 34.2016 0 0 1-33.792 34.5088zM158.321971-121.0368a124.0064 124.0064 0 0 0-33.4848 4.608L92.273971-107.52a124.928 124.928 0 0 0-75.776 60.0064 129.1264 129.1264 0 0 0-11.8784 97.3824L174.193971 676.6592a126.464 126.464 0 0 0 58.88 77.2096A122.88 122.88 0 0 0 327.793971 766.0544l32.4608-9.1136a128.3072 128.3072 0 0 0 87.6544-157.0816L279.051571-27.0336a126.464 126.464 0 0 0-58.88-77.1072 122.88 122.88 0 0 0-61.8496-16.896z m-9.216 94.5152a33.4848 33.4848 0 0 1 25.7024 3.2768 34.2016 34.2016 0 0 1 15.872 20.48l169.2672 627.3024a34.6112 34.6112 0 0 1-23.6544 42.3936l-32.4608 9.1136a33.3824 33.3824 0 0 1-25.7024-3.2768 34.0992 34.0992 0 0 1-15.872-20.48L92.990771 25.088a34.6112 34.6112 0 0 1 3.1744-26.112 33.8944 33.8944 0 0 1 20.48-16.2816zM132.619571 83.1488h45.7728v-46.592h-45.7728zM561.573171 745.7792h45.7728v-46.592h-45.7728zM865.803571 620.9536h45.7728v-46.592h-45.7728z"  horiz-adv-x="1024" />

    
    <glyph glyph-name="duzheguanli" unicode="&#59785;" d="M46.34510222-84.64952889000006c-18.99747555 0-34.45191111 15.33838222-34.45191111 34.18339556v83.78140444c0 83.67672889 25.31214222 164.24163555 73.20234667 232.97137778 46.76608 67.11409778 111.69109333 118.55758222 187.75950222 148.75079111l12.51896889 4.97550222-10.62001778 8.28984889c-59.85052445 46.70805333-94.17955555 116.50844445-94.17955556 191.50392889 0 134.34083555 110.04814222 243.63235555 245.30830223 243.63235555 135.25447111 0 245.30261333-109.29720889 245.30261333-243.63235555 0-74.99548445-34.32903111-144.79587555-94.17386666-191.51075555l-10.62001778-8.28871112 12.51896888-4.97550222c76.07409778-30.19320889 140.99911111-81.61962667 187.75950223-148.72803556 47.88451555-68.72860445 73.19665778-149.30033778 73.19665777-232.99413333v-83.78140444c0-18.84501333-15.45557333-34.17770667-34.4519111-34.17770667H46.34510222zM425.92938667 376.17208889000005c-190.29902222 0-345.12213333-153.80935111-345.12213334-342.85568v-49.60938667H770.9696v49.60938667c-0.00682667 189.04632889-154.78784 342.85568-345.04021333 342.85568z m-0.04096 418.9184c-97.26634667 0-176.39992889-78.63182222-176.39992889-175.28832 0-96.64967111 79.13244445-175.28035555 176.40106667-175.28035556 97.26065778 0 176.39310222 78.63182222 176.39310222 175.28035556 0 96.65536-79.13244445 175.28718222-176.39424 175.28718222z m479.85777778-754.05539556a424.86328889 424.86328889 0 0 1-6.79253334 68.33834667h40.24775111v30.64149333c0 118.66339555-80.85048889 221.82115555-196.608 250.85383112l-7.98037333 1.89326222c-14.78542222 5.04035555-24.69432889 17.84945778-24.69432889 31.97610666 0 13.77735111 9.216 26.15068445 23.47690667 31.52099556l0.23210666 0.08760889 0.22186667 0.10467555c47.89703111 21.60071111 78.84117333 69.26449778 78.84117333 121.42023112 0 56.49976889-35.77400889 106.35946667-89.42023111 125.2864-9.00551111 26.27925333-22.17756445 50.84501333-39.18734222 73.09198222-0.69404445 1.12981333-1.39264 2.25507555-2.09123555 3.3792 110.37354667-1.88871111 199.60149333-91.66961778 199.60149333-201.75758222 0-49.94161778-18.76878222-98.00135111-52.84181333-135.32501334l-6.79822223-7.45016889 8.97137778-4.61937777c109.29038222-56.22784 177.17930667-167.52184889 177.17475555-290.46215112v-64.80782222c0-18.83932445-15.44988445-34.16632889-34.44622222-34.16632889h-67.90712888v-0.00568889z"  horiz-adv-x="1025" />

    
    <glyph glyph-name="jieyuechaxun" unicode="&#58930;" d="M922 862H101c-16.6 0-30-13.4-30-30v-896c0-16.6 13.4-30 30-30h597c16.6 0 30 13.4 30 30s-13.4 30-30 30H131V802h761v-669c0-16.6 13.4-30 30-30s30 13.4 30 30V832c0 16.6-13.4 30-30 30zM319 18c16.6 0 30 13.4 30 30V544.5c4.5 11.3 9 22.9 13.3 34.7 26 70.5 38.8 123.2 39.4 125.4 3.9 16.1-6 32.3-22.1 36.2-16.1 3.9-32.3-6-36.2-22.1-0.5-2-50.5-205.1-149.4-337.6-9.9-13.3-7.2-32.1 6.1-42 5.4-4 11.7-6 17.9-6 9.1 0 18.2 4.2 24.1 12.1 16.2 21.7 31.9 46 46.9 72.6V48c0-16.6 13.4-30 30-30zM768.9 110.6c49.8 70 43.3 168.1-19.4 230.8-70 70-183.9 70-253.9 0s-70-183.9 0-253.9c35-35 81-52.5 126.9-52.5 36.5 0 73 11 103.9 33.1l138.4-138.4c5.9-5.9 13.5-8.8 21.2-8.8s15.4 2.9 21.2 8.8c11.7 11.7 11.7 30.7 0 42.4L768.9 110.6zM538 130c-46.6 46.6-46.6 122.4 0 169 23.3 23.3 53.9 34.9 84.5 34.9s61.2-11.7 84.5-34.9c46.6-46.6 46.6-122.4 0-169-46.6-46.6-122.4-46.6-169 0zM417 433h368c16.6 0 30 13.4 30 30s-13.4 30-30 30h-87.5v81H753c16.6 0 30 13.4 30 30s-13.4 30-30 30h-55.5v71c0 16.6-13.4 30-30 30s-30-13.4-30-30v-71h-73v71c0 16.6-13.4 30-30 30s-30-13.4-30-30v-71H448c-16.6 0-30-13.4-30-30s13.4-30 30-30h56.5v-81H417c-16.6 0-30-13.4-30-30s13.4-30 30-30z m147.5 141h73v-81h-73v81z"  horiz-adv-x="1024" />

    
    <glyph glyph-name="ziliao" unicode="&#58939;" d="M182.056421 25.896421a32.336842 32.336842 0 0 0-34.088421 34.088421V721.138526a100.432842 100.432842 0 0 0 102.265263 102.265263h518.144a100.432842 100.432842 0 0 0 102.265263-102.265263v-569.128421a34.088421 34.088421 0 0 0-68.176842 0V721.138526a32.336842 32.336842 0 0 1-34.088421 34.088421H250.233263a32.336842 32.336842 0 0 1-34.088421-34.088421V59.823158a34.169263 34.169263 0 0 0-34.088421-33.926737zM686.538105 547.435789H342.258526a34.088421 34.088421 0 1 0 0 68.176843h344.279579a32.336842 32.336842 0 0 0 34.088421-34.088421 34.169263 34.169263 0 0 0-34.088421-34.088422zM686.538105 411.082105H342.258526a34.088421 34.088421 0 1 0 0 68.176842h344.279579a32.336842 32.336842 0 0 0 34.088421-34.088421 34.169263 34.169263 0 0 0-34.088421-34.088421zM686.538105 274.728421H342.258526a34.088421 34.088421 0 1 0 0 68.176842h344.279579a32.336842 32.336842 0 0 0 34.088421-34.088421 34.169263 34.169263 0 0 0-34.088421-34.088421zM836.554105-79.791158H280.926316a133.12 133.12 0 0 0-132.931369 132.931369 130.991158 130.991158 0 0 0 132.931369 132.931368h555.627789a34.088421 34.088421 0 1 0 0-68.176842H280.926316a64.673684 64.673684 0 0 1-64.673684-64.673684 62.679579 62.679579 0 0 1 64.673684-64.673685h555.627789a32.336842 32.336842 0 0 0 34.088421-34.088421 34.169263 34.169263 0 0 0-34.088421-34.250105z"  horiz-adv-x="1024" />

    
    <glyph glyph-name="shezhi" unicode="&#58931;" d="M917.3 463.6c-7.2 38.2-33.7 63.5-68.6 63.5h-1.5c-35.3 0-64.1 28.9-64.1 64.4 0 8 3.9 19.7 5.6 23.8 15 33.8 3.5 75.3-27.7 97.2l-97.8 54.7-4 1.9c-9.8 4.3-20.7 6.3-31.5 6.3-22.6 0-45.4-8.8-60.7-24.7-14.6-15.1-40.8-32.6-52.8-32.6-12.1 0-38.5 17.9-53 33.2-15.3 16.2-38.1 25.3-60.9 25.3-10.7 0-21.5-2-31.5-6.3l-102.1-55.9-4-2.6c-30.4-21.2-41.9-62.6-27-96.4 1.9-4.4 5.8-16 5.8-24 0-35.5-28.8-64.4-66.6-64.4h-1.6c-32.4 0-58.9-25.3-66.1-64.1-2-10.9-8.4-48.9-8.4-80.4 0-31.6 6.4-69.5 8.5-81.1 7.2-38 33.8-63.5 66.2-63.5h3.9c35.3 0 64.1-28.9 64.1-64.3 0-7.7-3.6-19-5.7-23.8-14.9-33.8-3.5-75.2 27.1-96.8l96.4-54.4 3.9-1.9c9.8-4.4 20.6-6.4 31.5-6.4 23 0 46.3 9.3 61.5 26 14.3 15.5 42 34.7 53.9 34.7 12.4 0 39.4-19.1 54.2-35.4 15.3-16.9 37.6-26.7 61.4-26.7 11.2 0 21.8 2.1 31.7 6.4l100.3 55.3 4 2.6c30.3 21.2 41.8 62.6 26.9 96.3-1.8 4.4-5.7 16-5.7 24 0 35.5 28.8 64.3 66.8 64.3 32.6 0.4 60.1 24.9 67.5 64.1 2 10.9 8.4 48.9 8.4 80.4 0.2 31.7-6.3 69.8-8.3 81.3z m-58.1-150.8c-1.4-7.6-5.4-15.7-10.2-15.7-69.8 0-125-54.2-125-123.4 0-20.5 7.9-41 10.3-46.8 4-9 0.8-20.2-6.3-25.1l-0.2-0.1-95.5-52.7c-1.9-0.6-4-0.9-6.4-0.9-6.9 0-13.4 2.7-17.4 7.1-5.4 5.9-51.5 54.9-98.1 54.9-47.4 0-96.9-53.2-97.4-53.7-3.8-4.2-11.2-7-18.1-7-2.6 0-5.1 0.4-7.1 1.2l-1 0.5-91.3 51.5c-6.4 5.6-9 15.9-5.6 23.4 2.1 5 10.7 26.4 10.7 47.7 0 68-55.3 123.4-123.2 123.4h-3.9c-1.4 0.3-6.1 4.8-8.2 15.4-1.7 9.3-7.4 43.7-7.4 70.1 0 21 3.8 49.8 7.4 69.9 1.9 10.1 6.3 14.9 7.7 15.6h1.9c70.4 0.1 125.6 54.3 125.6 123.5 0 21.3-8.6 42.8-10.4 46.9-3.8 8.6-0.9 19.4 5.8 24.6l1 0.6 96.8 53.1c1.9 0.6 4.2 0.9 6.5 0.9 6.9 0 14.1-2.8 18-6.9 2-2.1 49.5-51.6 95.9-51.6 45.8 0 93.2 48.5 95.2 50.6 3.9 4 11.3 6.8 18.2 6.8 2.7 0 5.2-0.4 7.2-1.2l0.8-0.4 92.9-51.9c6.7-5.9 9.5-16.1 6.1-23.8-2.1-4.9-10.7-26.2-10.7-47.7 0-68.1 55.2-123.4 123.2-123.4 8.4 0 11.1-10.8 12-15.4 3.6-19.7 7.5-48.8 7.5-70.1 0.2-21.6-3.8-51.1-7.3-69.9zM512.3 540.3c-87 0-157.6-70.5-157.6-157.5s70.5-157.6 157.6-157.6c87 0 157.5 70.5 157.5 157.6 0 87-70.5 157.5-157.5 157.5z m0-256c-54.3 0-98.5 44.1-98.5 98.4 0 54.3 44.2 98.4 98.5 98.4s98.4-44.1 98.4-98.4c0-54.2-44.1-98.4-98.4-98.4z"  horiz-adv-x="1024" />

    
    <glyph glyph-name="chubanshe" unicode="&#59087;" d="M553.6 62.5c81.3 49.8 312.1 73.4 312.1 73.4V707.8s-191.5 0-317.4-94.4c2.7-10.6 5.3-514.2 5.3-550.9zM978.5 52H642.8c-13.1-2.6-31.5-7.9-55.1-26.2-28.9-23.6-55.1-21-63-21-5.2 0-31.5-2.6-63 21-23.6 18.4-57.7 23.6-70.8 26.2H55.2c-42 0-52.5 47.2-52.5 47.2V671h49.8v-566.6h78.7v661s254.4 0 380.3-107.5c125.9 107.5 403.9 107.5 403.9 107.5v-666.2H968V671h52.5v-571.8c7.9 0 0-47.2-42-47.2zM183.7 707.8v-569.2s236.1-26.2 317.4-73.4V610.7c-125.9 97.1-317.4 97.1-317.4 97.1z"  horiz-adv-x="1024" />

    
    <glyph glyph-name="wp-sj-3" unicode="&#59167;" d="M801 384H161c-52.9 0-96 43.1-96 96V608c0 52.9 43.1 96 96 96h640c17.7 0 32-14.3 32-32s-14.3-32-32-32H161c-17.6 0-32-14.4-32-32v-128c0-17.6 14.4-32 32-32h640c17.7 0 32-14.3 32-32s-14.3-32-32-32zM768 512H192c-17.7 0-32 14.3-32 32s14.3 32 32 32h576c17.7 0 32-14.3 32-32s-14.3-32-32-32zM863 64H223c-17.7 0-32 14.3-32 32s14.3 32 32 32h640c17.6 0 32 14.4 32 32V288c0 17.6-14.4 32-32 32H223c-17.7 0-32 14.3-32 32s14.3 32 32 32h640c52.9 0 96-43.1 96-96v-128c0-52.9-43.1-96-96-96zM832 192H256c-17.7 0-32 14.3-32 32s14.3 32 32 32h576c17.7 0 32-14.3 32-32s-14.3-32-32-32z"  horiz-adv-x="1024" />

    
    <glyph glyph-name="denglujilu" unicode="&#59119;" d="M256 768h512a128 128 0 0 0 128-128v-320a128 128 0 0 0-128-128H256a128 128 0 0 0-128 128V640a128 128 0 0 0 128 128z m0-64a64 64 0 0 1-64-64v-320a64 64 0 0 1 64-64h512a64 64 0 0 1 64 64V640a64 64 0 0 1-64 64H256z m96-640h320a32 32 0 0 0 0-64h-320a32 32 0 0 0 0 64z m154.496 389.504l113.152 113.152a32 32 0 1 0 45.248-45.312l-135.744-135.68a32 32 0 0 0-45.248 0L393.344 476.032a32 32 0 1 0 45.312 45.248l67.84-67.84z"  horiz-adv-x="1024" />

    
    <glyph glyph-name="sunhuai" unicode="&#59121;" d="M559.439046 58.181791h-420.026121a46.396502 46.396502 0 0 0-46.322029 46.32203V802.908956h884.810344a46.470975 46.470975 0 0 0 46.098611-46.694394v-235.482729a46.545448 46.545448 0 0 1 93.090896 0V756.214562A139.636343 139.636343 0 0 1 977.90124 895.999851H93.239841A93.090896 93.090896 0 0 1 0 802.908956v-698.777499A139.636343 139.636343 0 0 1 139.412925-34.909104h419.951648a46.545448 46.545448 0 0 1 0 93.090895M418.90903 430.545373h-186.181791a46.545448 46.545448 0 0 1 0-93.090895h186.181791a46.545448 46.545448 0 0 1 0 93.090895m0-186.181791h-186.181791a46.545448 46.545448 0 0 1 0-93.090895h186.181791a46.545448 46.545448 0 0 1 0 93.090895m186.181791 372.363582h-372.363582a46.545448 46.545448 0 0 1 0-93.090895h372.363582a46.545448 46.545448 0 0 1 0 93.090895M930.908956-34.909104a186.181791 186.181791 0 0 0-186.181792 186.181791 183.724191 183.724191 0 0 0 26.363342 93.984568l253.803018-254.100909A183.724191 183.724191 0 0 0 930.908956-34.909104m0 372.363582a186.181791 186.181791 0 0 0 186.181791-186.181791 183.724191 183.724191 0 0 0-26.363342-93.984568L836.924387 311.389027A183.724191 183.724191 0 0 0 930.908956 337.454478m0 93.090895a279.272687 279.272687 0 1 1 279.272686-279.272686A279.570578 279.570578 0 0 1 930.908956 430.545373"  horiz-adv-x="1210" />

    
    <glyph glyph-name="yonghuming" unicode="&#58911;" d="M835.5 152.1c-1 2.5-2.1 4.9-3.2 7.4-13.3 29.5-50.6 38.9-76.3 19.2l-0.6-0.6c-17-17-21.7-42.6-12.3-64.7 13.1-30.7 20.3-64.4 20.3-99.8 0-1.5-1.2-2.7-2.7-2.7H254.6c-1.5 0-2.7 1.2-2.7 2.7 0 138.8 111.3 250.8 249.3 254.4h4c13.1 0 26 1 38.7 3 4.9 0.7 9.9 1.6 15 2.8 0.3 0.1 0.6 0.1 1 0.2 40.4 9 77.9 28 109.4 55.8 0.2 0.2 0.5 0.4 0.7 0.7 3.8 3.4 7.5 6.9 11.2 10.5 47 47 72.9 109.6 72.9 176.1s-25.9 129-72.9 176.1c-47 47-109.6 72.9-176.1 72.9s-129-25.9-176.1-72.9c-47-47-72.9-109.6-72.9-176.1S282 388.1 329 341c4.2-4.2 8.6-8.3 13.1-12.2-31.7-16.6-60.5-37.9-86.1-63.4-32.7-32.7-58.3-70.7-76.2-113.1-18.6-43.9-28-90.5-28-138.5 0-20.5 1.8-41.1 5.3-61.3 4.2-24 25-41.4 49.3-41.4h602.5c24.3 0 45.1 17.5 49.3 41.4 3.5 20.2 5.3 40.8 5.3 61.3 0 47.8-9.4 94.4-28 138.3z m-326 513.7c78.8-2.3 142.7-66.4 144.6-145.2C656 443 598.2 378.3 523.5 369c-5.3 0.2-10.5 0.4-15.8 0.4-6.5 0-13-0.2-19.4-0.5-74.2 8.4-132.1 71.6-132.1 148-0.1 83.6 69.1 151.4 153.3 148.9zM212.9-33.3m-54.9 0a54.9 54.9 0 1 1 109.8 0 54.9 54.9 0 1 1-109.8 0ZM416.9 322.1m-54.9 0a54.9 54.9 0 1 1 109.8 0 54.9 54.9 0 1 1-109.8 0ZM802.5-33.8m-54.9 0a54.9 54.9 0 1 1 109.8 0 54.9 54.9 0 1 1-109.8 0Z"  horiz-adv-x="1024" />

    
    <glyph glyph-name="shujuzidian" unicode="&#58975;" d="M0 896h1024v-1024H0zM622.933333 166.4h55.466667v-162.133333h-55.466667v162.133333z m106.666667-55.466667h55.466667V0h-55.466667v110.933333z m110.933333 106.666667H896V0h-55.466667v217.6zM512 110.933333h55.466667V0H512v110.933333z m-12.8 55.466667l-38.4 38.4 153.6 153.6 115.2-115.2 115.2 115.2 38.4-38.4-153.6-153.6-115.2 115.2-115.2-115.2z m341.333333 601.6H128v-712.533333h328.533333v55.466666H183.466667V712.533333h601.6v-273.066666h55.466666V768zM238.933333 546.133333h328.533334V601.6H238.933333v-55.466667z m0-106.666666H512V494.933333H238.933333v-55.466666z m0-110.933334h166.4V384H238.933333v-55.466667z"  horiz-adv-x="1024" />

    
    <glyph glyph-name="jiaoseguanli" unicode="&#59138;" d="M277.333333 183.466667c0 21.333333-17.066667 34.133333-34.133333 34.133333H119.466667c-21.333333 0-34.133333-17.066667-34.133334-34.133333s17.066667-34.133333 34.133334-34.133334h119.466666c21.333333-4.266667 38.4 12.8 38.4 34.133334zM371.2 149.333333c-4.266667-21.333333 8.533333-38.4 29.866667-42.666666h8.533333c17.066667 0 34.133333 12.8 34.133333 29.866666 12.8 72.533333 76.8 128 153.6 128s140.8-51.2 153.6-128c4.266667-17.066667 17.066667-29.866667 34.133334-29.866666h8.533333c21.333333 4.266667 34.133333 21.333333 29.866667 42.666666-12.8 76.8-68.266667 136.533333-136.533334 166.4 46.933333 29.866667 76.8 81.066667 76.8 136.533334 0 89.6-72.533333 162.133333-162.133333 162.133333-89.6 0-162.133333-72.533333-162.133333-162.133333 0-59.733333 29.866667-106.666667 76.8-136.533334-76.8-29.866667-128-89.6-145.066667-166.4z m132.266667 307.2c0 51.2 42.666667 93.866667 93.866666 93.866667 51.2 0 93.866667-42.666667 93.866667-93.866667s-42.666667-93.866667-93.866667-93.866666c-51.2 0-93.866667 42.666667-93.866666 93.866666zM908.8 810.666667H221.866667c-38.4 0-72.533333-34.133333-72.533334-72.533334V682.666667c0-21.333333 17.066667-34.133333 34.133334-34.133334s38.4 12.8 38.4 34.133334V738.133333h686.933333v-750.933333H221.866667V42.666667c0 21.333333-17.066667 34.133333-34.133334 34.133333s-38.4-12.8-38.4-34.133333v-55.466667c0-38.4 34.133333-72.533333 72.533334-72.533333h686.933333c38.4 0 72.533333 34.133333 72.533333 72.533333V738.133333c0 38.4-34.133333 72.533333-72.533333 72.533334zM119.466667 324.266667h119.466666c21.333333 0 34.133333 17.066667 34.133334 34.133333s-17.066667 34.133333-34.133334 34.133333H119.466667c-21.333333 0-34.133333-17.066667-34.133334-34.133333s17.066667-34.133333 34.133334-34.133333zM119.466667 503.466667h119.466666c21.333333 0 34.133333 17.066667 34.133334 34.133333s-12.8 38.4-29.866667 38.4H119.466667c-17.066667 0-34.133333-17.066667-34.133334-34.133333s17.066667-38.4 34.133334-38.4z"  horiz-adv-x="1024" />

    
    <glyph glyph-name="yonghuguanli" unicode="&#58880;" d="M749.4 519.8c0 150.2-120.1 270.3-270.3 270.3S208.8 669.9 208.8 519.8c0-102.1 54.1-189.2 138.2-234.3-114.1-45.1-201.2-144.2-225.3-270.3-3-15 6-33 24-36h6c15 0 27 9 30 24 27 141.2 150.2 243.3 294.3 246.3h6c144.2-0.1 267.4 123.1 267.4 270.3z m-480.6 0C268.8 636.9 361.9 730 479 730s210.2-93.1 210.2-210.2c0-114.1-93.1-207.2-207.2-210.3h-9c-114.1 6-204.2 99.1-204.2 210.3z m417.5-270.4c0-18 12-30 30-30h150.2c18 0 30 12 30 30s-12 30-30 30H716.4c-15.1 0.1-30.1-11.9-30.1-30z m180.2-87.1H626.2c-18 0-30-12-30-30s12-30 30-30h240.3c18 0 30 12 30 30 0.1 18-11.9 30-30 30z m0-120.1H629.3c-18 0-30-12-30-30s12-30 30-30h237.3c18 0 30 12 30 30s-15.1 30-30.1 30z m0 0"  horiz-adv-x="1024" />

    
    <glyph glyph-name="bianji" unicode="&#58946;" d="M798.72 599.04l-148.48 163.84 15.36 20.48c30.72 25.6 81.92 25.6 107.52-5.12l46.08-51.2c25.6-30.72 25.6-81.92-5.12-107.52l-15.36-20.48zM716.8 527.36l-435.2-389.12c-10.24-10.24-15.36-15.36-25.6-15.36l-163.84-10.24 25.6 163.84c0 10.24 5.12 15.36 10.24 20.48L563.2 691.2l153.6-163.84zM102.4 61.44h819.2c5.12 0 10.24-5.12 10.24-10.24V-25.6c0-5.12-5.12-10.24-10.24-10.24H102.4c-5.12 0-10.24 5.12-10.24 10.24v76.8c0 5.12 0 10.24 10.24 10.24z"  horiz-adv-x="1024" />

    
    <glyph glyph-name="qingdianjilu" unicode="&#59013;" d="M163.328-66.048c-35.84 0-49.152 13.312-49.152 49.152V726.528c0 35.84 16.896 45.568 52.736 45.568h63.488c11.776 0 25.088 15.36 25.088 33.792 0 14.336-9.728 33.792-24.064 33.792h-90.112c-59.392 0-94.72-35.328-94.72-94.72v-778.24c0-59.392 37.376-94.72 94.72-94.72h333.824s-31.232 33.792-45.056 62.464l-266.752-0.512m563.2 838.144h72.192c35.84 0 45.568-12.288 45.568-48.128v-259.584c14.848-7.168 51.2-25.088 65.024-34.304v314.368c0 59.392-35.328 94.72-94.72 94.72h-88.064c-14.336 0-25.088-19.456-25.088-34.816 0-16.384 13.312-32.256 25.088-32.256M699.904 708.608h-92.672v110.08c0 42.496-34.304 77.312-77.312 77.312h-103.936c-42.496 0-77.312-34.304-77.312-77.312v-110.08h-92.16c-27.136 0-44.544-24.064-44.544-50.688s17.92-50.688 44.544-50.688h443.392c26.624 0 44.544 24.064 44.544 50.688 0.512 26.624-17.92 50.688-44.544 50.688z m-221.696 36.352c-28.16 0-51.2 23.04-51.2 51.2s23.04 51.2 51.2 51.2 51.2-23.04 51.2-51.2-23.04-51.2-51.2-51.2z m154.624-253.44h-376.32c-27.136 0-44.544-24.064-44.544-50.688s17.92-50.688 44.544-50.688h197.12c46.592 47.104 112.128 86.528 179.2 101.376m-421.376-261.632c0-27.136 16.896-50.688 43.52-50.688h113.664c5.12 36.864 14.848 73.216 38.4 101.888h-150.528c-27.136 0-45.056-24.064-45.056-51.2M713.216 401.92c-146.432 0-264.704-118.784-264.704-264.704 0-146.432 118.784-264.704 264.704-264.704 146.432 0 264.704 118.784 264.704 264.704s-118.784 264.704-264.704 264.704z m66.56-111.104c8.192 8.704 22.016 8.704 30.72 0l24.576-24.064c8.704-8.704 8.704-22.016 0-30.72l-15.36-15.36-55.296 54.784 15.36 15.36zM563.2 11.776l22.016 87.04 65.536-65.536-87.552-21.504z m40.448 97.28l150.016 154.112 55.808-54.272-150.016-154.112-55.808 54.272z m273.92-97.28h-171.52c-6.656 0-12.288 5.12-12.288 10.752 0 6.144 5.632 10.752 12.288 10.752h171.52c6.656 0 12.288-5.12 12.288-10.752 0-6.144-5.12-10.752-12.288-10.752z m-0.512 65.024h-104.448c-7.168 0-13.312 5.12-13.312 10.752 0 6.144 6.144 10.752 13.312 10.752h104.448c7.168 0 13.312-5.12 13.312-10.752-0.512-5.632-6.144-10.752-13.312-10.752z"  horiz-adv-x="1024" />

    
    <glyph glyph-name="jiaqi-" unicode="&#59664;" d="M422.72 206.19a29.59 29.59 0 1 0 0-59.18h-148a29.59 29.59 0 1 0 0 59.18z m-148 148H481.9V295H274.76a29.59 29.59 0 0 0 0 59.18z m591.87 118.33H156.4v-384.69a59.18 59.18 0 0 1 59.18-59.18H481.9v-59.18H186a88.77 88.77 0 0 0-88.77 88.77V650.06A88.77 88.77 0 0 0 186 738.84h118.35v29.59a29.59 29.59 0 1 0 59.18 0v-29.59h295.92v29.59a29.59 29.59 0 1 0 59.18 0v-29.59H837a88.77 88.77 0 0 0 88.77-88.77v-266.33h-59.18z m0 148a59.18 59.18 0 0 1-59.18 59.18h-88.78v-29.59a29.59 29.59 0 1 0-59.18 0v29.55H363.54v-29.59a29.59 29.59 0 1 0-59.18 0v29.59h-88.78a59.18 59.18 0 0 1-59.18-59.18v-88.78h710.19z m-148-236.73a207.14 207.14 0 1 0-207.1-207.19 207.06 207.06 0 0 0 207.14 207.14z m0-355.1a148 148 0 1 1-148 148 148 148 0 0 1 148.04-148.04z m0 236.73a29.59 29.59 0 0 0 29.59-29.59v-59.23h29.59a29.59 29.59 0 1 0 0-59.18h-59.14A29.59 29.59 0 0 0 689 147v88.79a29.59 29.59 0 0 0 29.63 29.59z"  horiz-adv-x="1024" />

    
    <glyph glyph-name="liutong" unicode="&#59022;" d="M513.024 262.144c-5.12 0-7.168 0-12.288 2.048L12.288 544.768C4.096 549.888 0 559.104 0 567.296c0 10.24 5.12 17.408 12.288 22.528l488.448 266.24c7.168 5.12 17.408 5.12 22.528 0l488.448-268.288c8.192-5.12 12.288-13.312 12.288-22.528 0-9.216-4.096-17.408-12.288-22.528L525.312 267.264c-3.072-3.072-7.168-5.12-12.288-5.12z m-2.048 78.848l394.24 223.232L512 780.288 118.784 566.272l392.192-225.28zM510.976 68.608c-6.144 0-12.288 2.048-17.408 5.12L18.432 346.112c-17.408 10.24-23.552 31.744-13.312 49.152 10.24 17.408 31.744 23.552 49.152 13.312L512 146.432l459.776 260.096c17.408 10.24 38.912 4.096 49.152-13.312 10.24-17.408 4.096-38.912-13.312-49.152L528.384 72.704c-5.12-3.072-11.264-4.096-17.408-4.096zM510.976-110.592c-6.144 0-12.288 2.048-17.408 5.12L18.432 167.936C1.024 178.176-5.12 199.68 5.12 217.088c10.24 17.408 31.744 23.552 49.152 13.312L512-31.744l459.776 260.096c17.408 10.24 38.912 4.096 49.152-13.312 10.24-17.408 4.096-38.912-13.312-49.152L528.384-105.472c-5.12-3.072-11.264-5.12-17.408-5.12z"  horiz-adv-x="1025" />

    
    <glyph glyph-name="ico_yunyingguanli_biangengbangdingjihuashu" unicode="&#58884;" d="M247.332568 819.506206h46.703907v-871.852883H247.332568V819.506206z m404.789491-62.273902v-163.940468l-34.409436 17.280129a62.266605 62.266605 0 0 1-55.736232 0l-34.408219-17.280129V757.232304h124.553887m62.273902 62.273902H465.294269v-301.721735c0-8.599318 6.969462-15.56878 15.569996-15.56878 2.422891-0.034057 4.822673 0.498687 7.003518 1.553229l101.974291 51.065598 101.975508-51.065598a15.625946 15.625946 0 0 1 7.008383-1.553229c8.599318 0 15.569996 6.969462 15.569996 15.56878V819.506206z m46.703907-529.337296c-85.982235 0-155.687798-69.705562-155.687798-155.687797 0-85.983452 69.705562-155.687798 155.687798-155.687798 85.983452 0 155.687798 69.704346 155.687798 155.687798 0 85.982235-69.704346 155.687798-155.687798 155.687797m0 31.133911c103.182088 0 186.82779-83.63962 186.82779-186.821708s-83.645702-186.82779-186.82779-186.82779c-103.182088 0-186.821708 83.645702-186.821708 186.82779s83.63962 186.821708 186.821708 186.821708z m0 0M823.373771 757.232304v-381.437537c0-12.894112-10.45176-23.351953-23.351953-23.351954-12.894112 0-23.351953 10.457841-23.351954 23.351954V757.232304c0 8.599318-6.969462 15.569996-15.569996 15.569996h-622.751191c-8.599318 0-15.569996-6.970678-15.569996-15.569996v-747.305078c0-8.594453 6.970678-15.563915 15.569996-15.563915h381.437537c12.894112 0 23.351953-10.457841 23.351954-23.358035 0-12.894112-10.457841-23.351953-23.351954-23.351953H138.348677c-34.393624 0-62.273903 27.880279-62.273902 62.273903V757.232304C76.074775 791.625927 103.955054 819.506206 138.348677 819.506206h622.751191c34.39484 0 62.273903-27.880279 62.273903-62.273902z m0 0M699.267486 33.04808h-1.207796c-12.575439 0-24.792065 5.04769-33.523962 13.848916l-0.026759 0.026759c-9.281669 8.718517-14.689387 20.865814-14.798855 33.33665 0.274886 12.687339 5.546378 24.53664 14.798855 33.363408l31.436772 30.854159c1.73081 1.620126 3.95301 2.483707 6.371037 2.537225 2.279367 0 4.529542-0.917098 6.149668-2.537225l0.027975-0.027975c1.67486-1.510658 2.635746-3.697585 2.635746-6.046282s-0.960886-4.6159-2.663721-6.209267l-31.245811-31.473261c-5.76653-5.614491-8.952048-13.065612-8.952049-21.000824 0-16.465201 13.62025-29.88111 30.39561-29.881111h0.164202c8.072656 0 15.678248 3.077267 21.388828 8.692974l31.382038 30.959978a8.903396 8.903396 0 0 0 6.177643 2.537225h0.193393c4.69496 0 8.621212-3.804621 8.703921-8.448496v-0.242045c0-2.240445-0.934127-4.455347-2.581012-6.073041l-31.301761-30.987953c-8.784197-8.720949-21.112725-13.148321-33.523962-13.229814z m109.772061 92.344758c-3.595415 0-6.835667 2.077459-8.208883 5.290952-1.346456 3.23782-0.604507 6.990139 1.895013 9.555339l31.493938 30.851726c11.805514 11.769024 11.641312 30.799425-0.32962 42.433439-2.829139 2.725753-6.068175 4.857946-9.583314 6.289544a32.615377 32.615377 0 0 1-11.669287 2.158952c-8.072656 0-15.678248-3.077267-21.388827-8.692974l-31.410013-30.851727a8.764736 8.764736 0 0 0-6.149668-2.537224h-0.384355a8.312269 8.312269 0 0 0-5.95749 2.509249l-0.027976 0.027975c-1.61891 1.592151-2.581012 3.804621-2.581011 6.073041a8.424169 8.424169 0 0 0 2.581011 6.234809l31.383255 30.852943c9.0603 8.93502 21.141916 13.874459 34.019 13.874459 12.82235 0 24.875991-4.91268 33.936291-13.820941 9.088275-8.93502 14.08488-20.784321 14.112855-33.391384 0.026759-12.605846-4.969846-24.481906-14.058121-33.388951l-31.493939-30.987953a9.077328 9.077328 0 0 0-6.178859-2.481274z m0 0M732.46426 104.877321a8.877853 8.877853 0 0 0-6.177643 2.537225 8.607832 8.607832 0 0 0-2.581012 6.208051v0.053517a7.903588 7.903588 0 0 0 2.553037 6.019523l45.55206 44.782136c1.536201 1.645669 3.760833 2.590742 6.149668 2.590742s4.69496-0.945074 6.31387-2.618718a8.460659 8.460659 0 0 0 2.554253-6.07304 8.455794 8.455794 0 0 0-2.554253-6.07304l-45.466918-44.727402c-1.81352-1.700403-4.119645-2.698994-6.343062-2.698994z m0 0"  horiz-adv-x="1024" />

    


  </font>
</defs>
</svg>
